<svg width="246" height="79" viewBox="0 0 246 79" fill="none" xmlns="http://www.w3.org/2000/svg">
<path d="M137.234 30.3953C141.81 30.3953 145.794 34.379 145.794 38.9513C145.794 44.0853 141.788 47.5087 137.234 47.5087C132.683 47.5087 128.677 44.0852 128.677 38.9513C128.677 34.3791 132.661 30.3953 137.234 30.3953ZM157.69 38.9513C157.69 27.9643 148.257 19.0367 137.234 19.0367C125.685 19.0367 116.782 27.9559 116.782 38.9513C116.782 49.9494 125.685 58.866 137.234 58.866C148.257 58.866 157.69 49.941 157.69 38.9513Z" fill="#32383E" stroke="#32383E"/>
<path d="M137.234 30.8953C141.534 30.8953 145.294 34.6553 145.294 38.9513C145.294 43.7873 141.534 47.0087 137.234 47.0087C132.937 47.0087 129.177 43.7873 129.177 38.9513C129.177 34.6553 132.937 30.8953 137.234 30.8953ZM137.234 18.5367C148.516 18.5367 158.19 27.6713 158.19 38.9513C158.19 50.234 148.516 59.366 137.234 59.366C125.417 59.366 116.282 50.234 116.282 38.9513C116.282 27.6713 125.417 18.5367 137.234 18.5367Z" stroke="#32383E" stroke-miterlimit="10" stroke-linecap="square"/>
<path fill-rule="evenodd" clip-rule="evenodd" d="M210.836 19.6133H223.729V59.3653H210.836V19.6133Z" fill="#32383E"/>
<path fill-rule="evenodd" clip-rule="evenodd" d="M178.065 19.6127L185.049 44.3247L192.032 19.6127H207.612V59.3647H195.794V36.8033L189.346 59.3647H180.213L173.765 35.194V59.3647H162.486V19.6127H178.065Z" fill="#32383E"/>
<path fill-rule="evenodd" clip-rule="evenodd" d="M74.3802 19.6127H86.1989L100.167 40.5647V32.506V19.6127H112.524V59.3647H100.167L86.7362 38.418V47.0087V59.3647H74.3802V19.6127Z" fill="#32383E"/>
<path fill-rule="evenodd" clip-rule="evenodd" d="M71.694 62.0515H50.742C47.518 63.6621 43.758 64.7368 39.998 64.7368C26.03 64.7368 14.7486 53.4555 14.7486 39.4861C14.7486 25.5208 26.03 14.7741 39.998 14.7741C43.758 14.7741 46.982 15.3128 50.2046 16.9235H71.158C67.934 11.5528 63.0993 7.79147 57.726 5.10481C52.354 2.42081 46.4446 0.271477 39.4593 0.271477C17.9713 0.271477 0.779297 17.9981 0.779297 39.4861C0.779297 61.5128 17.9713 78.7035 39.4593 78.7035C52.89 78.7035 64.71 71.7208 71.694 62.0515Z" fill="#00AEEF"/>
<path d="M54.5231 39.9115L54.1826 39.4917L54.523 39.0718L69.7582 20.2796H56.9774L41.9186 39.4915L56.9773 58.6983H69.7579L54.5231 39.9115Z" fill="#32383E" stroke="#32383E" stroke-width="1.33333"/>
<path d="M41.0715 39.4916L56.6529 19.6129H71.1569L55.0409 39.4916L71.1569 59.3649H56.6529L41.0715 39.4916Z" stroke="#32383E" stroke-miterlimit="10" stroke-linecap="square"/>
<path fill-rule="evenodd" clip-rule="evenodd" d="M41.0719 59.3653H28.1799V19.6133H41.0719V59.3653Z" fill="#32383E" stroke="#32383E" stroke-miterlimit="10" stroke-linecap="square"/>
<path d="M231.062 9.02586C232.526 7.56319 234.862 6.39653 236.909 6.39653V7.27253C234.862 7.27253 233.109 8.14853 231.649 9.60853L231.062 9.02586ZM228.729 14.8672C228.729 12.5299 229.606 10.4845 231.062 9.02586L231.649 9.60853C230.482 10.7779 229.606 12.8219 229.606 14.8672H228.729ZM231.062 20.7072C229.606 19.2499 228.729 17.2032 228.729 14.8672H229.606C229.606 16.9112 230.482 18.6632 231.649 20.1245L231.062 20.7072ZM236.909 23.0445C234.862 23.0445 232.526 22.1685 231.062 20.7072L231.649 20.1245C233.109 21.2925 234.862 22.1685 236.909 22.1685V23.0445ZM242.75 20.7072C241.289 22.1685 239.242 23.0445 236.909 23.0445V22.1685C238.953 22.1685 240.997 21.2925 242.163 20.1245L242.75 20.7072ZM245.378 14.8672C245.378 17.2032 244.209 19.2499 242.75 20.7072L242.163 20.1245C243.625 18.6632 244.499 16.9112 244.499 14.8672H245.378ZM242.75 9.02586C244.209 10.4845 245.378 12.5299 245.378 14.8672H244.499C244.499 12.8219 243.625 10.7779 242.163 9.60853L242.75 9.02586ZM236.909 6.39653C239.242 6.39653 241.289 7.56319 242.75 9.02586L242.163 9.60853C240.997 8.14853 238.953 7.27253 236.909 7.27253V6.39653Z" fill="#32383E"/>
<path d="M233.705 18.0853V9.53643H237.496C238.258 9.53643 238.837 9.61418 239.233 9.76969C239.63 9.9213 239.947 10.1915 240.184 10.5803C240.421 10.969 240.54 11.3986 240.54 11.869C240.54 12.4755 240.343 12.9867 239.951 13.4027C239.558 13.8187 238.951 14.083 238.131 14.1958C238.431 14.3396 238.658 14.4815 238.813 14.6214C239.144 14.9247 239.457 15.3037 239.752 15.7586L241.239 18.0853H239.816L238.685 16.3067C238.355 15.7936 238.083 15.4009 237.869 15.1288C237.655 14.8567 237.462 14.6662 237.291 14.5573C237.124 14.4484 236.953 14.3726 236.778 14.3299C236.65 14.3027 236.44 14.2891 236.148 14.2891H234.836V18.0853H233.705ZM234.836 13.3094H237.268C237.785 13.3094 238.189 13.2569 238.481 13.1519C238.773 13.0431 238.994 12.872 239.146 12.6388C239.297 12.4016 239.373 12.145 239.373 11.869C239.373 11.4647 239.226 11.1323 238.93 10.8718C238.639 10.6114 238.176 10.4811 237.542 10.4811H234.836V13.3094Z" fill="#32383E"/>
</svg>
